<?xml version="1.0" encoding="iso-8859-1"?>
<!-- Generator: Adobe Illustrator 19.0.0, SVG Export Plug-In . SVG Version: 6.00 Build 0)  -->
<svg version="1.1" id="Capa_1" xmlns="http://www.w3.org/2000/svg" xmlns:xlink="http://www.w3.org/1999/xlink" x="0px" y="0px"
	 viewBox="0 0 512 512" style="enable-background:new 0 0 512 512;" xml:space="preserve">
<path style="fill:#FFDC64;" d="M492.757,190.241l-160.969-14.929L267.847,26.833c-4.477-10.396-19.218-10.396-23.694,0
	l-63.941,148.478L19.243,190.24c-11.271,1.045-15.826,15.064-7.322,22.534l121.452,106.694L97.828,477.174
	c-2.489,11.042,9.436,19.707,19.169,13.927l139.001-82.537l139.002,82.537c9.732,5.78,21.659-2.885,19.17-13.927l-35.544-157.705
	l121.452-106.694C508.583,205.305,504.029,191.286,492.757,190.241z"/>
<path style="fill:#FFC850;" d="M267.847,26.833c-4.477-10.396-19.218-10.396-23.694,0l-63.941,148.478L19.243,190.24
	c-11.271,1.045-15.826,15.064-7.322,22.534l121.452,106.694L97.828,477.174c-2.489,11.042,9.436,19.707,19.169,13.927l31.024-18.422
	c4.294-176.754,86.42-301.225,151.441-372.431L267.847,26.833z"/>
<path d="M510.967,196.781c-2.56-7.875-9.271-13.243-17.518-14.008l-156.535-14.518l-31.029-72.054
	c-1.639-3.804-6.049-5.562-9.854-3.922c-3.804,1.638-5.56,6.05-3.922,9.853l32.791,76.144c1.086,2.521,3.463,4.248,6.196,4.501
	l160.969,14.929c3.194,0.296,4.307,2.692,4.638,3.708c0.33,1.016,0.838,3.608-1.572,5.725L373.678,313.835
	c-2.063,1.812-2.97,4.605-2.366,7.283l35.545,157.703c0.705,3.13-1.229,4.929-2.095,5.557c-0.864,0.628-3.17,1.915-5.931,0.274
	l-139.003-82.537c-2.359-1.4-5.299-1.4-7.657,0l-139.003,82.537c-2.76,1.642-5.066,0.354-5.931-0.274
	c-0.865-0.628-2.8-2.427-2.095-5.556l18.348-81.406c0.911-4.041-1.627-8.055-5.667-8.965c-4.047-0.91-8.054,1.627-8.965,5.667
	l-18.348,81.407c-1.82,8.078,1.211,16.12,7.91,20.988c6.699,4.866,15.285,5.265,22.403,1.037l135.174-80.264l135.174,80.264
	c3.28,1.947,6.87,2.913,10.443,2.913c4.185,0,8.347-1.325,11.96-3.95c6.7-4.868,9.73-12.909,7.91-20.989l-34.565-153.36
	L505.029,218.41C511.251,212.944,513.525,204.657,510.967,196.781z"/>
<path d="M116.085,362.057c-0.911,4.041,1.627,8.055,5.667,8.965c0.556,0.125,1.11,0.186,1.656,0.186c3.43,0,6.524-2.367,7.309-5.853
	l9.97-44.237c0.604-2.679-0.304-5.473-2.366-7.283L16.87,207.141c-2.41-2.117-1.902-4.709-1.571-5.725
	c0.33-1.016,1.442-3.412,4.637-3.708l160.968-14.929c2.733-0.253,5.11-1.98,6.196-4.501L251.04,29.801
	c1.269-2.946,3.891-3.265,4.959-3.265c1.069,0,3.691,0.318,4.96,3.264l17.367,40.327c1.64,3.804,6.05,5.561,9.854,3.922
	c3.804-1.638,5.56-6.05,3.922-9.853l-17.367-40.328c-3.276-7.605-10.454-12.33-18.736-12.33c-8.28,0-15.459,4.725-18.735,12.331
	l-62.18,144.388L18.551,182.773c-8.245,0.765-14.958,6.132-17.518,14.008c-2.559,7.875-0.284,16.163,5.938,21.629l118.106,103.755
	L116.085,362.057z"/>
<g>
</g>
<g>
</g>
<g>
</g>
<g>
</g>
<g>
</g>
<g>
</g>
<g>
</g>
<g>
</g>
<g>
</g>
<g>
</g>
<g>
</g>
<g>
</g>
<g>
</g>
<g>
</g>
<g>
</g>
</svg>
